# xmcd
#
# Track frame offsets: 
#        182
#        11095
#        23915
#        36637
#        49115
#        63032
#        75100
#        87282
#        100780
#        110925
#        122775
#        131805
#        141552
#        151775
#        166235
#        176137
#        188257
#        200100
#        214135
#        227150
#
# Disc length: 3251 seconds
#
# Revision: 3
# Processed by: cddbd v1.5.2PL0 Copyright (c) Steve Scherf et al.
# Submitted via: ExactAudioCopy v0.99pb5
#
DISCID=160cb114
DTITLE=Various Artist - Songs From The Golden West - 80 County and Western Hits
DTITLE=Various Artist - CD 4
DYEAR=2007
DGENRE=Country
TTITLE0=Ferlin Husky - Wings of a dove
TTITLE1=Dave Dudley - Me and Ole C.B.
TTITLE2=Bobby Bare - Travelling minstrel man
TTITLE3=Rick Johnson - Warm sweet love
TTITLE4=George Kent - Doogie Ray
TTITLE5=Buddy Meredith - I pledge allegiance
TTITLE6=Rick Pilgreen - How come it took so long to say goodbye
TTITLE7=Freddy Quinn - Home on the range
TTITLE8=Bobby Bare - Help me make it through the night
TTITLE9=Billy Grammer - Papa and mama
TTITLE10=Jonny Hill - Ring of fire
TTITLE11=Norville Dollar - What makes me feel so blue
TTITLE12=Dave Dudley - Truck drivin' son-of-a-gun
TTITLE13=Bobby Bare - Leaving on a jetplane
TTITLE14=Rick Johnson - Please, don't love me
TTITLE15=Ferlin Husky - Out of the clear blue sky
TTITLE16=George Kent - I always did like Leavenworth
TTITLE17=Freddy Quinn - Take me home, country roads
TTITLE18=Ronnie Rogers - Diane
TTITLE19=Dave Dudley - The tavern telephone
EXTD=
EXTT0=
EXTT1=
EXTT2=
EXTT3=
EXTT4=
EXTT5=
EXTT6=
EXTT7=
EXTT8=
EXTT9=
EXTT10=
EXTT11=
EXTT12=
EXTT13=
EXTT14=
EXTT15=
EXTT16=
EXTT17=
EXTT18=
EXTT19=
PLAYORDER=
